<?xml version="1.0" standalone="no"?>
<!DOCTYPE svg PUBLIC "-//W3C//DTD SVG 20010904//EN"
 "http://www.w3.org/TR/2001/REC-SVG-20010904/DTD/svg10.dtd">
<svg version="1.0" xmlns="http://www.w3.org/2000/svg"
 width="500.000000pt" height="500.000000pt" viewBox="0 0 500.000000 500.000000"
 preserveAspectRatio="xMidYMid meet">

<g transform="translate(0.000000,500.000000) scale(0.100000,-0.100000)"
fill="#000000" stroke="none">
<path d="M0 2500 l0 -2500 2500 0 2500 0 0 2500 0 2500 -2500 0 -2500 0 0
-2500z m3890 1825 l0 -555 -317 -2 -318 -3 -3 -34 c-2 -18 1 -38 6 -43 5 -5
39 -13 75 -18 71 -11 198 -50 262 -82 186 -94 379 -285 491 -487 l19 -35 80 0
c73 -1 80 -3 77 -20 -2 -10 -26 -39 -53 -65 l-49 -46 25 -80 c37 -118 48 -228
42 -410 -4 -134 -10 -179 -35 -278 -47 -179 -130 -342 -195 -379 -15 -9 -63
-13 -144 -13 -120 0 -122 1 -164 31 -58 42 -126 157 -146 247 -33 146 -16 405
32 498 20 38 19 72 -5 118 -21 42 -100 116 -110 104 -3 -5 -12 -30 -18 -58
-24 -96 -85 -208 -141 -256 l-51 -44 0 -617 0 -618 320 0 320 0 0 -555 0 -555
-1385 0 -1385 0 0 555 0 555 315 0 315 0 0 620 0 620 -46 42 c-52 48 -115 170
-135 260 l-12 57 -29 -17 c-38 -22 -82 -77 -98 -122 -10 -31 -9 -44 13 -110
14 -41 31 -106 38 -144 15 -91 6 -304 -16 -366 -31 -85 -78 -161 -124 -199
-39 -32 -56 -40 -109 -46 -99 -11 -207 2 -240 30 -63 54 -146 238 -183 410
-30 135 -36 362 -14 495 9 58 26 132 38 165 l20 59 -52 47 c-31 30 -51 56 -51
70 0 21 3 21 78 17 l78 -4 39 69 c141 248 356 426 620 512 43 14 92 25 109 25
65 0 76 8 76 56 l0 44 -315 0 -315 0 0 555 0 555 1385 0 1385 0 0 -555z"/>
<path d="M1250 4753 c0 -5 -1 -199 -1 -433 l0 -425 316 -3 315 -2 0 -108 0
-107 55 -16 c30 -9 57 -14 60 -11 3 3 5 86 5 184 l0 178 -315 0 -315 0 0 315
0 315 1138 -2 1137 -3 3 -312 2 -313 -320 0 -320 0 0 -186 c0 -145 3 -185 13
-182 6 3 33 11 60 19 l47 13 0 108 0 108 320 0 320 0 0 435 0 435 -1260 0
c-693 0 -1260 -3 -1260 -7z"/>
<path d="M1655 3641 c-108 -24 -147 -37 -238 -82 -191 -95 -365 -271 -471
-476 -27 -50 -28 -51 -59 -42 -34 10 -107 9 -107 -1 0 -3 22 -27 49 -54 l48
-48 -23 -75 c-34 -105 -44 -185 -44 -358 0 -214 20 -323 87 -495 34 -87 100
-190 130 -201 32 -12 225 -12 256 0 33 13 95 77 120 126 65 126 84 313 48 475
-12 52 -30 119 -42 147 l-21 53 29 57 c29 57 118 143 147 143 8 0 16 -14 19
-32 25 -169 121 -321 229 -362 l45 -18 28 -171 c41 -257 37 -248 165 -375
l110 -109 25 -109 c14 -60 27 -148 29 -195 4 -85 16 -126 41 -141 7 -5 13 -23
13 -42 0 -100 84 -159 232 -160 143 -2 229 50 245 146 4 24 17 56 28 72 17 24
22 47 23 110 2 79 7 109 40 247 15 64 20 70 128 182 128 131 127 129 157 334
31 211 29 205 75 228 80 39 132 93 174 179 22 44 45 108 51 141 18 92 15 89
51 64 112 -77 163 -165 134 -233 -39 -94 -59 -201 -59 -321 0 -183 32 -287
117 -381 l53 -59 119 -3 c68 -2 131 1 147 7 55 21 144 196 186 366 57 232 53
471 -11 691 l-22 76 52 50 c39 37 48 50 36 55 -16 6 -89 -1 -114 -11 -11 -4
-26 14 -55 69 -71 137 -221 304 -348 388 -302 201 -597 211 -869 30 -141 -93
-230 -192 -299 -332 l-36 -73 -16 46 c-9 26 -36 77 -61 114 -176 265 -508 421
-771 363z m217 -102 c122 -25 305 -147 399 -266 26 -32 64 -89 85 -127 88
-161 30 -242 -185 -253 l-96 -6 -39 94 c-31 75 -37 101 -32 133 8 46 42 129
69 169 11 16 16 32 11 37 -13 13 -130 -42 -169 -79 l-34 -32 -48 30 c-26 16
-58 32 -70 36 -29 8 -30 53 -3 114 26 55 25 64 -2 55 -42 -13 -108 -65 -133
-103 -23 -38 -24 -38 -102 -43 -43 -3 -79 -4 -81 -3 -4 3 11 58 23 88 4 10 3
17 -4 17 -16 0 -108 -88 -129 -122 -15 -25 -88 -78 -107 -78 -4 0 -4 11 -1 25
4 15 2 25 -4 25 -15 0 -59 -49 -80 -90 -10 -19 -40 -55 -66 -80 l-47 -45 37
69 c89 164 219 291 385 376 112 57 304 84 423 59z m1545 -9 c228 -55 417 -206
544 -435 l33 -60 -51 45 c-28 25 -56 58 -64 74 -16 36 -67 96 -81 96 -6 0 -7
-11 -4 -25 4 -14 4 -25 1 -25 -21 0 -88 48 -110 80 -36 51 -110 120 -130 120
-14 0 -14 -3 -2 -27 8 -16 17 -41 21 -56 l7 -29 -43 8 c-24 4 -60 7 -80 6 -33
-2 -40 2 -68 43 -18 27 -52 57 -83 75 -71 41 -80 39 -57 -13 11 -24 22 -61 26
-84 6 -37 4 -42 -17 -48 -13 -4 -46 -20 -72 -36 l-48 -30 -46 40 c-43 38 -149
88 -161 76 -3 -3 10 -36 30 -73 20 -37 41 -90 46 -119 10 -55 2 -88 -47 -197
l-21 -49 -101 6 c-83 5 -109 11 -145 32 -76 44 -90 85 -57 167 74 190 295 389
490 443 72 20 196 18 290 -5z m-1673 -369 c104 -51 226 -194 226 -264 0 -18
-5 -19 -56 -13 -78 9 -108 24 -198 100 -91 76 -160 106 -258 114 -120 9 -228
-24 -340 -104 -27 -19 -48 -30 -48 -26 0 15 95 100 150 134 111 69 232 100
369 94 79 -4 103 -9 155 -35z m1844 23 c131 -26 314 -133 353 -206 13 -24 6
-21 -57 27 -64 49 -167 86 -255 92 -131 9 -233 -26 -330 -116 -30 -27 -74 -59
-97 -71 -45 -23 -146 -38 -155 -23 -13 21 54 136 110 190 118 113 245 145 431
107z m-2521 -300 c128 -91 231 -255 279 -441 22 -86 25 -115 22 -233 -3 -122
-6 -141 -30 -193 -31 -66 -69 -104 -116 -113 -18 -3 -35 -5 -37 -2 -2 2 7 26
20 53 62 131 61 356 -1 565 -42 139 -130 314 -193 383 -36 40 -17 33 56 -19z
m2914 -7 c-116 -158 -204 -401 -217 -607 -9 -130 7 -226 61 -352 15 -36 -55
-19 -103 26 -72 65 -101 264 -66 444 42 218 154 402 309 508 27 19 51 34 53
34 1 0 -15 -24 -37 -53z m-2277 -28 c26 -23 60 -60 76 -84 37 -54 80 -181 80
-237 l0 -43 -19 40 c-10 22 -31 53 -47 69 l-29 28 -5 -33 -5 -32 -28 40 c-16
23 -39 72 -52 109 -23 71 -40 184 -26 184 5 0 29 -18 55 -41z m828 21 c47 -43
176 -79 293 -80 91 -1 165 -54 165 -118 0 -51 -33 -109 -98 -173 -41 -39 -78
-88 -95 -122 -39 -81 -82 -127 -118 -127 -32 0 -37 -11 -14 -34 37 -37 83 -26
140 33 l29 31 21 -26 c45 -56 127 -10 142 78 4 28 10 38 24 38 15 0 18 -5 13
-32 -10 -57 -48 -122 -84 -146 -28 -19 -43 -23 -78 -18 -76 10 -150 -44 -196
-144 -17 -38 -21 -65 -21 -170 0 -117 2 -128 28 -177 31 -61 34 -94 10 -115
-28 -23 -144 -61 -188 -61 -49 0 -175 45 -192 69 -18 25 -17 37 17 114 27 61
30 79 30 169 0 119 -22 191 -79 254 -45 50 -89 69 -139 61 -75 -12 -129 37
-155 139 -15 58 -15 58 6 55 16 -2 23 -12 27 -38 8 -45 33 -84 66 -98 33 -16
32 -16 64 18 l29 31 51 -46 c28 -25 56 -45 63 -45 21 0 78 40 72 50 -3 6 -17
10 -29 10 -36 0 -68 32 -111 111 -24 44 -67 100 -107 140 -54 54 -70 77 -83
122 -14 49 -14 59 -1 91 20 49 61 66 180 77 123 12 187 29 246 68 55 36 47 35
72 11z m835 -32 c-7 -80 -36 -167 -73 -225 -37 -58 -49 -66 -42 -28 3 14 2 28
-2 30 -12 7 -69 -61 -76 -90 -12 -48 -27 -27 -20 27 10 70 39 150 77 209 31
49 113 129 132 129 5 0 7 -22 4 -52z m-2369 -75 c36 -87 65 -173 59 -179 -7
-8 -53 25 -91 64 l-29 31 13 65 c7 36 16 66 20 66 4 0 17 -21 28 -47z m3078
-10 c4 -32 6 -65 5 -73 -1 -8 -24 -36 -52 -62 -54 -52 -49 -59 19 -28 31 14
44 16 47 7 7 -25 13 -135 6 -144 -12 -19 -49 -33 -107 -39 l-57 -7 6 56 c3 31
10 71 15 89 45 152 87 258 102 258 4 0 11 -26 16 -57z m-3121 -152 c3 -5 30
-17 59 -25 59 -17 58 -15 72 -120 l7 -49 -57 7 c-70 8 -116 30 -116 55 0 10 3
46 6 80 6 57 15 73 29 52z m130 -308 c-11 -107 -48 -253 -65 -253 -13 0 -58
123 -75 209 -10 45 -15 84 -14 85 5 3 116 22 143 25 17 1 18 -5 11 -66z m2967
50 c46 -6 47 -6 41 -37 -20 -115 -62 -248 -81 -260 -5 -3 -14 6 -21 20 -18 41
-51 200 -51 250 l0 47 33 -7 c17 -4 53 -10 79 -13z m-1677 -870 c47 -18 102
-74 90 -93 -5 -8 -74 -22 -125 -24 -31 -1 -36 2 -46 34 -6 19 -9 52 -6 73 5
43 1 42 87 10z m345 -37 c0 -82 -13 -95 -76 -78 -24 7 -55 12 -69 12 -19 0
-25 5 -25 21 0 25 52 79 77 79 10 1 29 7 43 15 44 25 50 20 50 -49z m-267
-161 c39 -11 56 -11 105 1 102 26 122 24 122 -14 0 -83 -167 -132 -275 -81
-50 24 -75 52 -75 86 0 22 30 35 60 25 8 -2 36 -10 63 -17z"/>
<path d="M1878 1570 l-3 -515 -309 -2 c-169 -1 -310 -4 -313 -6 -2 -3 -4 -195
-4 -428 l1 -424 1260 -3 1260 -2 0 430 0 430 -317 2 -318 3 -5 495 c-4 432 -7
489 -18 451 -8 -25 -32 -64 -58 -91 l-44 -47 2 -464 3 -464 318 -3 317 -2 0
-310 0 -310 -1140 0 -1140 0 0 310 0 310 313 2 312 3 3 463 2 464 -45 51 c-34
39 -48 66 -59 112 -13 55 -14 18 -18 -455z"/>
</g>
</svg>
